# xmcd
#
# Track frame offsets:
#	150
#	20410
#	38379
#	56249
#	76377
#	100200
#	190197
#	212392
#	229606
#	248998
#
# Disc length: 3596 seconds
#
# Revision: 0
# Processed by: cddbd v1.5.2PL0 Copyright (c) Steve Scherf et al.
# Submitted via: dBpowerAMP V4.0
#
DISCID=760e0a0a
DTITLE=Pierre Eliane - Dix Psaumes
DYEAR=2006
DGENRE=Christian Rap
TTITLE0=Psaume 33
TTITLE1=Psaume 42
TTITLE2=Psaume 22
TTITLE3=Psaume 55
TTITLE4=Psaume 89
TTITLE5=Psaume 118
TTITLE6=Psaume 102
TTITLE7=Psaume 73
TTITLE8=Psaume 148
TTITLE9=Psaume 130
EXTD=
EXTT0=
EXTT1=
EXTT2=
EXTT3=
EXTT4=
EXTT5=
EXTT6=
EXTT7=
EXTT8=
EXTT9=
PLAYORDER=
